<mxfile host="Electron" modified="2024-01-29T20:41:34.855Z" agent="Mozilla/5.0 (Macintosh; Intel Mac OS X 10_15_7) AppleWebKit/537.36 (KHTML, like Gecko) draw.io/23.0.2 Chrome/120.0.6099.109 Electron/28.1.0 Safari/537.36" etag="qZlbe6sXOb0pw1qavwNN" version="23.0.2" type="device">
  <diagram id="JGq5mMFjrIXwyw8050Zy" name="overview">
    <mxGraphModel dx="826" dy="617" grid="1" gridSize="10" guides="1" tooltips="1" connect="1" arrows="1" fold="1" page="1" pageScale="1" pageWidth="827" pageHeight="1169" math="0" shadow="0">
      <root>
        <mxCell id="0" />
        <mxCell id="1" parent="0" />
        <mxCell id="zwkG-bCpsD7iMPw7Cko9-1" value="" style="edgeStyle=orthogonalEdgeStyle;rounded=1;orthogonalLoop=1;jettySize=auto;curved=1;strokeWidth=1;endArrow=block;endFill=1;fontFamily=Space Grotesk;fontSize=14;" parent="1" source="zwkG-bCpsD7iMPw7Cko9-2" target="zwkG-bCpsD7iMPw7Cko9-8" edge="1">
          <mxGeometry relative="1" as="geometry" />
        </mxCell>
        <mxCell id="zwkG-bCpsD7iMPw7Cko9-2" value="Model A" style="rounded=1;fontFamily=Space Grotesk;fontSize=14;" parent="1" vertex="1">
          <mxGeometry x="284" y="230" width="90" height="40" as="geometry" />
        </mxCell>
        <mxCell id="zwkG-bCpsD7iMPw7Cko9-3" value="" style="edgeStyle=entityRelationEdgeStyle;rounded=1;orthogonalLoop=1;jettySize=auto;strokeWidth=1;endArrow=block;endFill=1;fontFamily=Space Grotesk;fontSize=14;" parent="1" source="zwkG-bCpsD7iMPw7Cko9-5" target="zwkG-bCpsD7iMPw7Cko9-8" edge="1">
          <mxGeometry relative="1" as="geometry" />
        </mxCell>
        <mxCell id="zwkG-bCpsD7iMPw7Cko9-4" value="" style="edgeStyle=entityRelationEdgeStyle;rounded=1;orthogonalLoop=1;jettySize=auto;entryX=0;entryY=0.5;entryDx=0;entryDy=0;endArrow=classic;endFill=1;fontFamily=Space Grotesk;fontSize=14;" parent="1" source="zwkG-bCpsD7iMPw7Cko9-5" target="zwkG-bCpsD7iMPw7Cko9-9" edge="1">
          <mxGeometry relative="1" as="geometry" />
        </mxCell>
        <mxCell id="zwkG-bCpsD7iMPw7Cko9-5" value="Model B" style="rounded=1;fontFamily=Space Grotesk;fontSize=14;" parent="1" vertex="1">
          <mxGeometry x="284" y="300" width="90" height="40" as="geometry" />
        </mxCell>
        <mxCell id="zwkG-bCpsD7iMPw7Cko9-11" style="edgeStyle=entityRelationEdgeStyle;rounded=1;orthogonalLoop=1;jettySize=auto;html=1;exitX=1;exitY=0.5;exitDx=0;exitDy=0;entryX=0;entryY=0.5;entryDx=0;entryDy=0;fontSize=14;" parent="1" source="zwkG-bCpsD7iMPw7Cko9-7" target="zwkG-bCpsD7iMPw7Cko9-10" edge="1">
          <mxGeometry relative="1" as="geometry" />
        </mxCell>
        <mxCell id="zwkG-bCpsD7iMPw7Cko9-7" value="Model C" style="rounded=1;fontFamily=Space Grotesk;fontSize=14;" parent="1" vertex="1">
          <mxGeometry x="284" y="370" width="90" height="40" as="geometry" />
        </mxCell>
        <mxCell id="zwkG-bCpsD7iMPw7Cko9-17" style="edgeStyle=orthogonalEdgeStyle;rounded=1;orthogonalLoop=1;jettySize=auto;html=1;entryX=0;entryY=0.5;entryDx=0;entryDy=0;fontSize=14;" parent="1" source="zwkG-bCpsD7iMPw7Cko9-8" target="zwkG-bCpsD7iMPw7Cko9-16" edge="1">
          <mxGeometry relative="1" as="geometry" />
        </mxCell>
        <mxCell id="zwkG-bCpsD7iMPw7Cko9-19" style="edgeStyle=orthogonalEdgeStyle;rounded=1;orthogonalLoop=1;jettySize=auto;html=1;exitX=1;exitY=0.5;exitDx=0;exitDy=0;entryX=0;entryY=0.5;entryDx=0;entryDy=0;fontSize=14;" parent="1" source="zwkG-bCpsD7iMPw7Cko9-8" target="zwkG-bCpsD7iMPw7Cko9-18" edge="1">
          <mxGeometry relative="1" as="geometry" />
        </mxCell>
        <mxCell id="zwkG-bCpsD7iMPw7Cko9-8" value="Protocol &#xa;⍺" style="shape=hexagon;perimeter=hexagonPerimeter2;fixedSize=1;rounded=1;size=10;fontFamily=Space Grotesk;strokeColor=#e76f51;strokeWidth=2;fontColor=#E76F51;fontSize=14;" parent="1" vertex="1">
          <mxGeometry x="470" y="225" width="79" height="50" as="geometry" />
        </mxCell>
        <mxCell id="zwkG-bCpsD7iMPw7Cko9-9" value="Protocol &#xa;β" style="shape=hexagon;perimeter=hexagonPerimeter2;fixedSize=1;rounded=1;size=10;fontFamily=Space Grotesk;strokeColor=#e76f51;strokeWidth=2;fontColor=#E76F51;fontSize=14;" parent="1" vertex="1">
          <mxGeometry x="470" y="365" width="79" height="50" as="geometry" />
        </mxCell>
        <mxCell id="zwkG-bCpsD7iMPw7Cko9-10" value="Protocol &#xa;𝛄" style="shape=hexagon;perimeter=hexagonPerimeter2;fixedSize=1;rounded=1;size=10;fontFamily=Space Grotesk;strokeColor=#e76f51;strokeWidth=2;fontColor=#E76F51;fontSize=14;" parent="1" vertex="1">
          <mxGeometry x="470" y="480" width="79" height="50" as="geometry" />
        </mxCell>
        <mxCell id="zwkG-bCpsD7iMPw7Cko9-13" style="edgeStyle=orthogonalEdgeStyle;rounded=1;orthogonalLoop=1;jettySize=auto;html=1;entryX=0;entryY=0.5;entryDx=0;entryDy=0;fontSize=14;" parent="1" source="zwkG-bCpsD7iMPw7Cko9-12" target="zwkG-bCpsD7iMPw7Cko9-2" edge="1">
          <mxGeometry relative="1" as="geometry" />
        </mxCell>
        <mxCell id="zwkG-bCpsD7iMPw7Cko9-14" style="edgeStyle=orthogonalEdgeStyle;rounded=1;orthogonalLoop=1;jettySize=auto;html=1;exitX=1;exitY=0.5;exitDx=0;exitDy=0;entryX=0;entryY=0.5;entryDx=0;entryDy=0;fontSize=14;" parent="1" source="zwkG-bCpsD7iMPw7Cko9-12" target="zwkG-bCpsD7iMPw7Cko9-5" edge="1">
          <mxGeometry relative="1" as="geometry" />
        </mxCell>
        <mxCell id="zwkG-bCpsD7iMPw7Cko9-15" style="edgeStyle=orthogonalEdgeStyle;rounded=1;orthogonalLoop=1;jettySize=auto;html=1;entryX=0;entryY=0.5;entryDx=0;entryDy=0;fontSize=14;" parent="1" source="zwkG-bCpsD7iMPw7Cko9-12" target="zwkG-bCpsD7iMPw7Cko9-7" edge="1">
          <mxGeometry relative="1" as="geometry" />
        </mxCell>
        <mxCell id="zwkG-bCpsD7iMPw7Cko9-12" value="Protocol &#xa;app" style="shape=hexagon;perimeter=hexagonPerimeter2;fixedSize=1;rounded=1;size=10;fontFamily=Space Grotesk;fontStyle=0;strokeColor=#e76f51;strokeWidth=2;fontColor=#E76F51;fontSize=14;" parent="1" vertex="1">
          <mxGeometry x="90" y="295" width="79" height="50" as="geometry" />
        </mxCell>
        <mxCell id="zwkG-bCpsD7iMPw7Cko9-26" style="edgeStyle=orthogonalEdgeStyle;rounded=1;orthogonalLoop=1;jettySize=auto;html=1;exitX=1;exitY=0.5;exitDx=0;exitDy=0;entryX=0;entryY=0.5;entryDx=0;entryDy=0;fontSize=14;" parent="1" source="zwkG-bCpsD7iMPw7Cko9-16" target="zwkG-bCpsD7iMPw7Cko9-25" edge="1">
          <mxGeometry relative="1" as="geometry" />
        </mxCell>
        <mxCell id="zwkG-bCpsD7iMPw7Cko9-16" value="Model D" style="rounded=1;fontFamily=Space Grotesk;fontSize=14;" parent="1" vertex="1">
          <mxGeometry x="630" y="185" width="90" height="40" as="geometry" />
        </mxCell>
        <mxCell id="zwkG-bCpsD7iMPw7Cko9-21" style="edgeStyle=orthogonalEdgeStyle;rounded=1;orthogonalLoop=1;jettySize=auto;html=1;entryX=0;entryY=0.5;entryDx=0;entryDy=0;fontSize=14;" parent="1" source="zwkG-bCpsD7iMPw7Cko9-18" target="zwkG-bCpsD7iMPw7Cko9-20" edge="1">
          <mxGeometry relative="1" as="geometry" />
        </mxCell>
        <mxCell id="zwkG-bCpsD7iMPw7Cko9-18" value="Model E" style="rounded=1;fontFamily=Space Grotesk;fontSize=14;" parent="1" vertex="1">
          <mxGeometry x="630" y="275" width="90" height="40" as="geometry" />
        </mxCell>
        <mxCell id="zwkG-bCpsD7iMPw7Cko9-20" value="Protocol &#xa;β" style="shape=hexagon;perimeter=hexagonPerimeter2;fixedSize=1;rounded=1;size=10;fontFamily=Space Grotesk;strokeColor=#e76f51;strokeWidth=2;fontColor=#E76F51;fontSize=14;" parent="1" vertex="1">
          <mxGeometry x="790" y="270" width="79" height="50" as="geometry" />
        </mxCell>
        <mxCell id="zwkG-bCpsD7iMPw7Cko9-25" value="Protocol &#xa;ε" style="shape=hexagon;perimeter=hexagonPerimeter2;fixedSize=1;rounded=1;size=10;fontFamily=Space Grotesk;strokeColor=#e76f51;strokeWidth=2;fontColor=#E76F51;fontSize=14;" parent="1" vertex="1">
          <mxGeometry x="790" y="180" width="79" height="50" as="geometry" />
        </mxCell>
      </root>
    </mxGraphModel>
  </diagram>
</mxfile>
